<mxfile host="Electron" agent="Mozilla/5.0 (Windows NT 10.0; Win64; x64) AppleWebKit/537.36 (KHTML, like Gecko) draw.io/26.0.9 Chrome/128.0.6613.186 Electron/32.2.5 Safari/537.36" version="26.0.9">
  <diagram name="Страница — 1" id="43Tc6AxUeFtdhghfdACa">
    <mxGraphModel dx="1063" dy="1878" grid="1" gridSize="10" guides="1" tooltips="1" connect="1" arrows="1" fold="1" page="1" pageScale="1" pageWidth="827" pageHeight="1169" math="0" shadow="0">
      <root>
        <mxCell id="0" />
        <mxCell id="1" parent="0" />
        <mxCell id="YlrW94vvFn7f3tA-Af7H-1" value="Библиотекарь" style="shape=umlActor;verticalLabelPosition=bottom;verticalAlign=top;html=1;outlineConnect=0;fontSize=14;fontStyle=1" parent="1" vertex="1">
          <mxGeometry x="330" y="300" width="30" height="60" as="geometry" />
        </mxCell>
        <mxCell id="YlrW94vvFn7f3tA-Af7H-2" value="Администратор" style="shape=umlActor;verticalLabelPosition=bottom;verticalAlign=top;html=1;outlineConnect=0;fontSize=14;fontStyle=1" parent="1" vertex="1">
          <mxGeometry x="330" y="50" width="30" height="60" as="geometry" />
        </mxCell>
        <mxCell id="YlrW94vvFn7f3tA-Af7H-3" value="Читатель" style="shape=umlActor;verticalLabelPosition=bottom;verticalAlign=top;html=1;outlineConnect=0;fontSize=14;fontStyle=1" parent="1" vertex="1">
          <mxGeometry x="330" y="570" width="30" height="60" as="geometry" />
        </mxCell>
        <mxCell id="YlrW94vvFn7f3tA-Af7H-4" value="&lt;font style=&quot;font-size: 14px;&quot;&gt;Регистрация книг&lt;/font&gt;" style="ellipse;whiteSpace=wrap;html=1;" parent="1" vertex="1">
          <mxGeometry x="40" y="290" width="140" height="70" as="geometry" />
        </mxCell>
        <mxCell id="YlrW94vvFn7f3tA-Af7H-5" value="&lt;font style=&quot;font-size: 14px;&quot;&gt;Регистрация читателей&lt;/font&gt;" style="ellipse;whiteSpace=wrap;html=1;" parent="1" vertex="1">
          <mxGeometry x="50" y="170" width="140" height="70" as="geometry" />
        </mxCell>
        <mxCell id="YlrW94vvFn7f3tA-Af7H-6" value="&lt;font style=&quot;font-size: 14px;&quot;&gt;Списание книг&lt;/font&gt;" style="ellipse;whiteSpace=wrap;html=1;" parent="1" vertex="1">
          <mxGeometry x="40" y="410" width="140" height="70" as="geometry" />
        </mxCell>
        <mxCell id="YlrW94vvFn7f3tA-Af7H-7" value="&lt;font style=&quot;font-size: 14px;&quot;&gt;Выдача книг&lt;/font&gt;" style="ellipse;whiteSpace=wrap;html=1;" parent="1" vertex="1">
          <mxGeometry x="530" y="290" width="140" height="70" as="geometry" />
        </mxCell>
        <mxCell id="YlrW94vvFn7f3tA-Af7H-8" value="&lt;font style=&quot;font-size: 14px;&quot;&gt;Бронирование книг&lt;/font&gt;" style="ellipse;whiteSpace=wrap;html=1;" parent="1" vertex="1">
          <mxGeometry x="530" y="170" width="140" height="70" as="geometry" />
        </mxCell>
        <mxCell id="YlrW94vvFn7f3tA-Af7H-9" value="&lt;font style=&quot;font-size: 14px;&quot;&gt;Прием книг&lt;/font&gt;" style="ellipse;whiteSpace=wrap;html=1;" parent="1" vertex="1">
          <mxGeometry x="530" y="410" width="140" height="70" as="geometry" />
        </mxCell>
        <mxCell id="YlrW94vvFn7f3tA-Af7H-10" value="&lt;font style=&quot;font-size: 14px;&quot;&gt;Выдача бронированных&lt;/font&gt;&lt;div&gt;&lt;font style=&quot;font-size: 14px;&quot;&gt;книг&lt;/font&gt;&lt;/div&gt;" style="ellipse;whiteSpace=wrap;html=1;" parent="1" vertex="1">
          <mxGeometry x="710" y="190" width="140" height="70" as="geometry" />
        </mxCell>
        <mxCell id="YlrW94vvFn7f3tA-Af7H-11" value="&lt;font style=&quot;font-size: 14px;&quot;&gt;Отмена бронирования&lt;/font&gt;" style="ellipse;whiteSpace=wrap;html=1;" parent="1" vertex="1">
          <mxGeometry x="710" y="370" width="140" height="70" as="geometry" />
        </mxCell>
        <mxCell id="YlrW94vvFn7f3tA-Af7H-12" value="&lt;font style=&quot;font-size: 14px;&quot;&gt;Регистрация библиотекаря&lt;/font&gt;" style="ellipse;whiteSpace=wrap;html=1;" parent="1" vertex="1">
          <mxGeometry x="50" y="50" width="140" height="70" as="geometry" />
        </mxCell>
        <mxCell id="YlrW94vvFn7f3tA-Af7H-13" value="&lt;font style=&quot;font-size: 14px;&quot;&gt;Отмена регисрации библиотекаря&lt;/font&gt;" style="ellipse;whiteSpace=wrap;html=1;" parent="1" vertex="1">
          <mxGeometry x="530" y="50" width="140" height="70" as="geometry" />
        </mxCell>
        <mxCell id="YlrW94vvFn7f3tA-Af7H-14" value="&lt;font style=&quot;font-size: 14px;&quot;&gt;Поиск книг&lt;/font&gt;" style="ellipse;whiteSpace=wrap;html=1;" parent="1" vertex="1">
          <mxGeometry x="50" y="560" width="140" height="70" as="geometry" />
        </mxCell>
        <mxCell id="YlrW94vvFn7f3tA-Af7H-15" value="&lt;font style=&quot;font-size: 14px;&quot;&gt;Заказ книг&lt;/font&gt;" style="ellipse;whiteSpace=wrap;html=1;" parent="1" vertex="1">
          <mxGeometry x="530" y="560" width="140" height="70" as="geometry" />
        </mxCell>
        <mxCell id="YlrW94vvFn7f3tA-Af7H-17" value="" style="endArrow=open;endFill=1;endSize=12;html=1;rounded=0;exitX=1;exitY=0.3333333333333333;exitDx=0;exitDy=0;exitPerimeter=0;entryX=0;entryY=0.5;entryDx=0;entryDy=0;" parent="1" source="YlrW94vvFn7f3tA-Af7H-2" target="YlrW94vvFn7f3tA-Af7H-13" edge="1">
          <mxGeometry width="160" relative="1" as="geometry">
            <mxPoint x="430" y="120" as="sourcePoint" />
            <mxPoint x="520" y="80" as="targetPoint" />
          </mxGeometry>
        </mxCell>
        <mxCell id="YlrW94vvFn7f3tA-Af7H-18" value="" style="endArrow=open;endFill=1;endSize=12;html=1;rounded=0;exitX=1;exitY=0.3333333333333333;exitDx=0;exitDy=0;exitPerimeter=0;entryX=0.012;entryY=0.602;entryDx=0;entryDy=0;entryPerimeter=0;" parent="1" source="YlrW94vvFn7f3tA-Af7H-1" target="YlrW94vvFn7f3tA-Af7H-8" edge="1">
          <mxGeometry width="160" relative="1" as="geometry">
            <mxPoint x="390" y="170" as="sourcePoint" />
            <mxPoint x="570" y="180" as="targetPoint" />
          </mxGeometry>
        </mxCell>
        <mxCell id="YlrW94vvFn7f3tA-Af7H-19" value="" style="endArrow=open;endFill=1;endSize=12;html=1;rounded=0;" parent="1" target="YlrW94vvFn7f3tA-Af7H-10" edge="1">
          <mxGeometry width="160" relative="1" as="geometry">
            <mxPoint x="370" y="320" as="sourcePoint" />
            <mxPoint x="600" y="340" as="targetPoint" />
          </mxGeometry>
        </mxCell>
        <mxCell id="YlrW94vvFn7f3tA-Af7H-20" value="" style="endArrow=open;endFill=1;endSize=12;html=1;rounded=0;entryX=0;entryY=0.5;entryDx=0;entryDy=0;" parent="1" target="YlrW94vvFn7f3tA-Af7H-7" edge="1">
          <mxGeometry width="160" relative="1" as="geometry">
            <mxPoint x="360" y="320" as="sourcePoint" />
            <mxPoint x="590" y="370" as="targetPoint" />
          </mxGeometry>
        </mxCell>
        <mxCell id="YlrW94vvFn7f3tA-Af7H-21" value="" style="endArrow=open;endFill=1;endSize=12;html=1;rounded=0;entryX=0;entryY=0.5;entryDx=0;entryDy=0;" parent="1" target="YlrW94vvFn7f3tA-Af7H-11" edge="1">
          <mxGeometry width="160" relative="1" as="geometry">
            <mxPoint x="370" y="320" as="sourcePoint" />
            <mxPoint x="620" y="390" as="targetPoint" />
          </mxGeometry>
        </mxCell>
        <mxCell id="YlrW94vvFn7f3tA-Af7H-22" value="" style="endArrow=open;endFill=1;endSize=12;html=1;rounded=0;entryX=0;entryY=0.5;entryDx=0;entryDy=0;" parent="1" target="YlrW94vvFn7f3tA-Af7H-9" edge="1">
          <mxGeometry width="160" relative="1" as="geometry">
            <mxPoint x="370" y="320" as="sourcePoint" />
            <mxPoint x="620" y="420" as="targetPoint" />
          </mxGeometry>
        </mxCell>
        <mxCell id="YlrW94vvFn7f3tA-Af7H-23" value="" style="endArrow=open;endFill=1;endSize=12;html=1;rounded=0;exitX=1;exitY=0.3333333333333333;exitDx=0;exitDy=0;exitPerimeter=0;entryX=0;entryY=0.5;entryDx=0;entryDy=0;" parent="1" source="YlrW94vvFn7f3tA-Af7H-3" target="YlrW94vvFn7f3tA-Af7H-15" edge="1">
          <mxGeometry width="160" relative="1" as="geometry">
            <mxPoint x="370" y="500" as="sourcePoint" />
            <mxPoint x="530" y="500" as="targetPoint" />
          </mxGeometry>
        </mxCell>
        <mxCell id="YlrW94vvFn7f3tA-Af7H-24" value="" style="endArrow=open;endFill=1;endSize=12;html=1;rounded=0;exitX=0;exitY=0.3333333333333333;exitDx=0;exitDy=0;exitPerimeter=0;entryX=1;entryY=0.5;entryDx=0;entryDy=0;" parent="1" source="YlrW94vvFn7f3tA-Af7H-2" target="YlrW94vvFn7f3tA-Af7H-12" edge="1">
          <mxGeometry width="160" relative="1" as="geometry">
            <mxPoint x="210" y="150" as="sourcePoint" />
            <mxPoint x="50" y="150" as="targetPoint" />
          </mxGeometry>
        </mxCell>
        <mxCell id="YlrW94vvFn7f3tA-Af7H-25" value="" style="endArrow=open;endFill=1;endSize=12;html=1;rounded=0;exitX=0;exitY=0.3333333333333333;exitDx=0;exitDy=0;exitPerimeter=0;entryX=1;entryY=0.5;entryDx=0;entryDy=0;" parent="1" source="YlrW94vvFn7f3tA-Af7H-1" target="YlrW94vvFn7f3tA-Af7H-5" edge="1">
          <mxGeometry width="160" relative="1" as="geometry">
            <mxPoint x="230" y="180" as="sourcePoint" />
            <mxPoint x="200" y="210" as="targetPoint" />
          </mxGeometry>
        </mxCell>
        <mxCell id="YlrW94vvFn7f3tA-Af7H-26" value="" style="endArrow=open;endFill=1;endSize=12;html=1;rounded=0;entryX=1;entryY=0.5;entryDx=0;entryDy=0;" parent="1" target="YlrW94vvFn7f3tA-Af7H-4" edge="1">
          <mxGeometry width="160" relative="1" as="geometry">
            <mxPoint x="330" y="320" as="sourcePoint" />
            <mxPoint x="50" y="300" as="targetPoint" />
          </mxGeometry>
        </mxCell>
        <mxCell id="YlrW94vvFn7f3tA-Af7H-27" value="" style="endArrow=open;endFill=1;endSize=12;html=1;rounded=0;entryX=1;entryY=0.5;entryDx=0;entryDy=0;" parent="1" target="YlrW94vvFn7f3tA-Af7H-6" edge="1">
          <mxGeometry width="160" relative="1" as="geometry">
            <mxPoint x="330" y="320" as="sourcePoint" />
            <mxPoint x="80" y="430" as="targetPoint" />
          </mxGeometry>
        </mxCell>
        <mxCell id="YlrW94vvFn7f3tA-Af7H-28" value="" style="endArrow=open;endFill=1;endSize=12;html=1;rounded=0;entryX=1;entryY=0.5;entryDx=0;entryDy=0;exitX=0;exitY=0.3333333333333333;exitDx=0;exitDy=0;exitPerimeter=0;" parent="1" source="YlrW94vvFn7f3tA-Af7H-3" target="YlrW94vvFn7f3tA-Af7H-14" edge="1">
          <mxGeometry width="160" relative="1" as="geometry">
            <mxPoint x="270" y="470" as="sourcePoint" />
            <mxPoint x="110" y="470" as="targetPoint" />
          </mxGeometry>
        </mxCell>
        <mxCell id="YlrW94vvFn7f3tA-Af7H-29" value="" style="endArrow=open;endFill=1;endSize=12;html=1;rounded=0;exitX=0.333;exitY=1.019;exitDx=0;exitDy=0;exitPerimeter=0;entryX=1.012;entryY=0.376;entryDx=0;entryDy=0;dashed=1;entryPerimeter=0;" parent="1" source="YlrW94vvFn7f3tA-Af7H-10" target="YlrW94vvFn7f3tA-Af7H-7" edge="1">
          <mxGeometry width="160" relative="1" as="geometry">
            <mxPoint x="850" y="510" as="sourcePoint" />
            <mxPoint x="710" y="525" as="targetPoint" />
          </mxGeometry>
        </mxCell>
        <mxCell id="gBeeqcIw6pwTZj29JM20-1" value="&lt;span&gt;Варианты использования системы Библиотека&lt;/span&gt;" style="whiteSpace=wrap;html=1;shape=mxgraph.basic.document;fontSize=16;fontStyle=1" parent="1" vertex="1">
          <mxGeometry x="730" y="-50" width="240" height="100" as="geometry" />
        </mxCell>
      </root>
    </mxGraphModel>
  </diagram>
</mxfile>
